<svg width="34" height="34" viewBox="0 0 34 34" fill="none" xmlns="http://www.w3.org/2000/svg">
<path d="M16.6667 20C16.2546 20 15.8518 20.1222 15.5092 20.3511C15.1666 20.58 14.8996 20.9054 14.7419 21.2861C14.5842 21.6668 14.543 22.0856 14.6234 22.4898C14.7038 22.8939 14.9022 23.2651 15.1935 23.5565C15.4849 23.8478 15.8561 24.0462 16.2602 24.1266C16.6644 24.207 17.0833 24.1658 17.4639 24.0081C17.8446 23.8504 18.17 23.5834 18.3989 23.2408C18.6278 22.8982 18.75 22.4954 18.75 22.0833C18.75 21.5308 18.5305 21.0009 18.1398 20.6102C17.7491 20.2195 17.2192 20 16.6667 20ZM16.6667 17.5C17.1087 17.5 17.5326 17.3244 17.8452 17.0118C18.1577 16.6993 18.3333 16.2754 18.3333 15.8333V10.8333C18.3333 10.3913 18.1577 9.96738 17.8452 9.65482C17.5326 9.34226 17.1087 9.16667 16.6667 9.16667C16.2246 9.16667 15.8007 9.34226 15.4882 9.65482C15.1756 9.96738 15 10.3913 15 10.8333V15.8333C15 16.2754 15.1756 16.6993 15.4882 17.0118C15.8007 17.3244 16.2246 17.5 16.6667 17.5ZM16.6667 0C13.3703 0 10.148 0.977483 7.40717 2.80884C4.66635 4.6402 2.53014 7.24317 1.26868 10.2886C0.0072214 13.334 -0.322834 16.6852 0.320253 19.9182C0.96334 23.1512 2.55069 26.1209 4.88156 28.4518C7.21244 30.7827 10.1822 32.37 13.4152 33.0131C16.6482 33.6562 19.9993 33.3261 23.0447 32.0647C26.0902 30.8032 28.6931 28.667 30.5245 25.9262C32.3559 23.1854 33.3333 19.963 33.3333 16.6667C33.3284 12.2479 31.5709 8.01152 28.4464 4.88698C25.3218 1.76244 21.0854 0.0049143 16.6667 0ZM16.6667 30C14.0296 30 11.4517 29.218 9.25907 27.7529C7.06641 26.2878 5.35745 24.2055 4.34828 21.7691C3.33911 19.3328 3.07507 16.6519 3.58954 14.0655C4.10401 11.479 5.37388 9.10328 7.23858 7.23858C9.10328 5.37388 11.4791 4.104 14.0655 3.58953C16.6519 3.07506 19.3328 3.33911 21.7691 4.34827C24.2055 5.35744 26.2878 7.06641 27.7529 9.25906C29.218 11.4517 30 14.0296 30 16.6667C29.996 20.2016 28.5899 23.5907 26.0903 26.0903C23.5907 28.5899 20.2017 29.996 16.6667 30Z" fill="black"/>
</svg>
